Coordinates
version=1
nRows=11
nColumns=48
inDegrees=yes

Units are S.I. units (second, meters, Newtons, ...)
Angles are in degrees.

endheader
time	pelvis_tilt	pelvis_list	pelvis_rotation	pelvis_tx	pelvis_ty	pelvis_tz	hip_flexion_r	hip_adduction_r	hip_rotation_r	knee_angle_r	knee_adduction_r	knee_rotation_r	knee_anterior_posterior_r	knee_inferior_superior_r	knee_medial_lateral_r	ankle_angle_r	subtalar_angle_r	mtp_angle_r	hip_flexion_l	hip_adduction_l	hip_rotation_l	knee_angle_l	knee_adduction_l	knee_rotation_l	knee_anterior_posterior_l	knee_inferior_superior_l	knee_medial_lateral_l	ankle_angle_l	subtalar_angle_l	mtp_angle_l	lumbar_extension	lumbar_bending	lumbar_rotation	arm_flex_r	arm_add_r	arm_rot_r	elbow_flex_r	pro_sup_r	wrist_flex_r	wrist_dev_r	arm_flex_l	arm_add_l	arm_rot_l	elbow_flex_l	pro_sup_l	wrist_flex_l	wrist_dev_l
      0.00000000	     -5.83810823	      2.07368028	     -0.45965899	     -1.13999991	      1.00741570	      0.13749212	     12.58753186	     -4.89852861	     -7.43326348	    -14.48383651	      0.98440452	      4.11446608	      0.00174930	     -0.40000000	      0.00000000	     -7.42675838	      0.00000000	      0.00000000	     11.91679191	      1.93665877	     -8.41433479	    -13.38569462	      0.98440452	      4.11446608	      0.00000000	     -0.40000000	      0.00000000	    -10.45785680	      0.00000000	      0.00000000	    -15.14732347	     -0.24416604	      0.18945193	     -3.40951710	    -20.59625726	     17.29709649	     46.36681436	     81.42591780	      0.00000000	      0.00000000	     -1.35132461	    -16.16515845	     22.01629500	     44.00691893	     84.19265678	      0.00000000	      0.00000000
      0.01000000	     -5.74064933	      2.09291879	     -0.45958531	     -1.13982776	      1.00741676	      0.13793789	     12.51006833	     -4.89010131	     -7.49803539	    -14.64734162	      0.98440452	      4.11446608	      0.00264261	     -0.40000000	      0.00000000	     -7.25778980	      0.00000000	      0.00000000	     11.82384849	      1.91830927	     -8.53588886	    -13.42723477	      0.98440452	      4.11446608	      0.00000000	     -0.40000000	      0.00000000	    -10.30362519	      0.00000000	      0.00000000	    -15.22906031	     -0.23303479	      0.09048267	     -3.38022658	    -20.60582203	     17.39468156	     46.31369463	     81.42422300	      0.00000000	      0.00000000	     -1.42765834	    -16.20295604	     21.87532455	     44.12013113	     84.35111715	      0.00000000	      0.00000000
      0.02000000	     -5.81596020	      2.09950404	     -0.38186714	     -1.13991995	      1.00724249	      0.13830879	     12.60454483	     -4.87206933	     -7.43114522	    -14.67233926	      0.98440452	      4.11446608	      0.00254925	     -0.40000000	      0.00000000	     -7.31606073	      0.00000000	      0.00000000	     11.96619747	      1.90653265	     -8.46788002	    -13.51242016	      0.98440452	      4.11446608	      0.00000000	     -0.40000000	      0.00000000	    -10.39071589	      0.00000000	      0.00000000	    -15.15910508	     -0.21253719	      0.00689896	     -3.37329237	    -20.66419758	     17.61726222	     46.31187649	     81.07429360	      0.00000000	      0.00000000	     -1.31314999	    -16.25901245	     22.09609835	     44.02110856	     84.08696522	      0.00000000	      0.00000000
      0.03000000	     -5.84522666	      2.08334276	     -0.34449272	     -1.13981972	      1.00721501	      0.13871120	     12.61687675	     -4.82930033	     -7.41186503	    -14.64926288	      0.98440452	      4.11446608	      0.00241615	     -0.40000000	      0.00000000	     -7.32223490	      0.00000000	      0.00000000	     12.01572431	      1.87253415	     -8.39702105	    -13.56220686	      0.98440452	      4.11446608	      0.00000000	     -0.40000000	      0.00000000	    -10.38354121	      0.00000000	      0.00000000	    -15.12777482	     -0.17191006	     -0.00311995	     -3.42876928	    -20.75360223	     17.70660345	     46.34550356	     80.85471192	      0.00000000	      0.00000000	     -1.22240335	    -16.21532778	     22.08389346	     43.88140990	     84.08475613	      0.00000000	      0.00000000
      0.04000000	     -5.75392399	      2.09139471	     -0.35497106	     -1.13950156	      1.00729229	      0.13912547	     12.53455259	     -4.82185825	     -7.47312216	    -14.74376593	      0.98440452	      4.11446608	      0.00250632	     -0.40000000	      0.00000000	     -7.17255526	      0.00000000	      0.00000000	     11.87214408	      1.85777598	     -8.46209166	    -13.51125232	      0.98440452	      4.11446608	      0.00000000	     -0.40000000	      0.00000000	    -10.35780176	      0.00000000	      0.00000000	    -15.21595077	     -0.16847478	     -0.00380961	     -3.51479232	    -20.74249374	     17.57511207	     46.31745724	     81.12387917	      0.00000000	      0.00000000	     -1.25889150	    -16.17300765	     21.80212577	     43.90890276	     84.62677191	      0.00000000	      0.00000000
      0.05000000	     -5.78488907	      2.05331128	     -0.32755337	     -1.13950093	      1.00724011	      0.13949787	     12.57322717	     -4.74724006	     -7.41424513	    -14.74359402	      0.98440452	      4.11446608	      0.00239333	     -0.40000000	      0.00000000	     -7.21537784	      0.00000000	      0.00000000	     11.89652296	      1.79890803	     -8.39738250	    -13.48641309	      0.98440452	      4.11446608	      0.00000000	     -0.40000000	      0.00000000	    -10.32881306	      0.00000000	      0.00000000	    -15.19823608	     -0.08750999	     -0.03995273	     -3.53116985	    -20.76366663	     17.56173107	     46.30049884	     80.95592552	      0.00000000	      0.00000000	     -1.24180432	    -16.15705471	     21.77599410	     43.90214044	     84.36316754	      0.00000000	      0.00000000
      0.06000000	     -5.75006888	      2.02327592	     -0.27485294	     -1.13933279	      1.00728925	      0.13980079	     12.48094261	     -4.69553191	     -7.44452214	    -14.70066581	      0.98440452	      4.11446608	      0.00261964	     -0.40000000	      0.00000000	     -7.21631258	      0.00000000	      0.00000000	     11.88289814	      1.74916992	     -8.40832619	    -13.54539326	      0.98440452	      4.11446608	      0.00000000	     -0.40000000	      0.00000000	    -10.30177513	      0.00000000	      0.00000000	    -15.24107964	      0.00723809	     -0.14163880	     -3.60998860	    -20.71723865	     17.37174342	     46.34259716	     81.30361459	      0.00000000	      0.00000000	     -1.22901534	    -16.17348976	     21.67873283	     43.85520824	     84.78169598	      0.00000000	      0.00000000
      0.07000000	     -5.83696525	      2.03417671	     -0.25097497	     -1.13933113	      1.00719085	      0.14011009	     12.58679199	     -4.68820693	     -7.42940744	    -14.70849113	      0.98440452	      4.11446608	      0.00249458	     -0.40000000	      0.00000000	     -7.19543126	      0.00000000	      0.00000000	     11.94774784	      1.74531246	     -8.34823083	    -13.48606296	      0.98440452	      4.11446608	      0.00000000	     -0.40000000	      0.00000000	    -10.39607536	      0.00000000	      0.00000000	    -15.16671513	      0.04363771	     -0.23793465	     -3.56760034	    -20.76081733	     17.59371611	     46.25356666	     81.09388135	      0.00000000	      0.00000000	     -1.18621437	    -16.23619912	     21.83517856	     43.82324291	     84.52159346	      0.00000000	      0.00000000
      0.08000000	     -5.88816940	      2.05298982	     -0.23926693	     -1.13937316	      1.00711030	      0.14042509	     12.65671646	     -4.68787925	     -7.43672006	    -14.75262972	      0.98440452	      4.11446608	      0.00262263	     -0.40000000	      0.00000000	     -7.19679110	      0.00000000	      0.00000000	     12.05727093	      1.73753540	     -8.34258800	    -13.58543906	      0.98440452	      4.11446608	      0.00000000	     -0.40000000	      0.00000000	    -10.39920858	      0.00000000	      0.00000000	    -15.12993187	      0.06791340	     -0.33468515	     -3.52447380	    -20.79628751	     17.82002391	     46.24449347	     80.71505884	      0.00000000	      0.00000000	     -1.14847670	    -16.30293331	     21.96483595	     43.77889361	     84.28187316	      0.00000000	      0.00000000
      0.09000000	     -6.00252517	      2.04872216	     -0.24339678	     -1.13950776	      1.00699287	      0.14075415	     12.82679649	     -4.65152813	     -7.33422980	    -14.81820409	      0.98440452	      4.11446608	      0.00266164	     -0.40000000	      0.00000000	     -7.25460146	      0.00000000	      0.00000000	     12.14376976	      1.72492444	     -8.20578138	    -13.51343189	      0.98440452	      4.11446608	      0.00000000	     -0.40000000	      0.00000000	    -10.45683950	      0.00000000	      0.00000000	    -15.02472432	      0.11256193	     -0.33720071	     -3.49548075	    -20.90081020	     18.13537503	     46.19455244	     80.16617382	      0.00000000	      0.00000000	     -1.03449831	    -16.37907048	     22.20985619	     43.71113960	     84.04521789	      0.00000000	      0.00000000
      0.10000000	     -5.92095273	      1.98366506	     -0.33384273	     -1.13918671	      1.00707343	      0.14126355	     12.71176333	     -4.53667035	     -7.41311725	    -14.77563930	      0.98440452	      4.11446608	      0.00265063	     -0.40000000	      0.00000000	     -7.10489155	      0.00000000	      0.00000000	     12.01722446	      1.58907128	     -8.40582226	    -13.47144757	      0.98440452	      4.11446608	      0.00000000	     -0.40000000	      0.00000000	    -10.46315357	      0.00000000	      0.00000000	    -15.12624836	      0.19889215	     -0.31733202	     -3.62082874	    -20.82029971	     17.60511779	     46.20411202	     81.23566782	      0.00000000	      0.00000000	     -1.27205014	    -16.21837995	     21.37514784	     43.91011391	     84.93957752	      0.00000000	      0.00000000
